<svg width="127" height="25" viewBox="0 0 127 25" fill="none" xmlns="http://www.w3.org/2000/svg">
<path d="M11.1394 8.26229C10.1447 8.73649 9.31215 9.44521 8.73079 10.3126C8.14944 11.1799 7.84124 12.1732 7.83918 13.1861V21.0619C7.83855 21.1332 7.81392 21.2028 7.76854 21.2613C7.72315 21.3199 7.65913 21.3647 7.5849 21.3899L5.23304 22.1755C5.17404 22.1954 5.11057 22.2022 5.04802 22.1953C4.98548 22.1884 4.9257 22.1681 4.87375 22.136C4.8218 22.1039 4.77923 22.061 4.74963 22.011C4.72003 21.9609 4.70429 21.9052 4.70374 21.8485V11.8024C4.70575 10.7883 5.01461 9.79382 5.59719 8.92567C6.17976 8.05753 7.01405 7.34851 8.01052 6.8747L17.454 2.35841C17.5134 2.32985 17.5801 2.31559 17.6475 2.31699C17.7149 2.3184 17.7807 2.33543 17.8387 2.36643C17.8966 2.39744 17.9447 2.44137 17.9782 2.49398C18.0118 2.54659 18.0297 2.60611 18.0302 2.66676V4.74765C18.0302 4.87531 17.9516 4.99414 17.8239 5.05502L11.1394 8.26229Z" fill="#DB00CF"/>
<path d="M6.43569 6.16568C5.44108 6.63997 4.60855 7.34871 4.02721 8.21604C3.44588 9.08338 3.13762 10.0766 3.13545 11.0895V18.9653C3.13543 19.0368 3.11104 19.1066 3.06557 19.1652C3.0201 19.2239 2.95574 19.2686 2.88116 19.2933L0.529304 20.0789C0.470302 20.0988 0.406836 20.1056 0.344289 20.0987C0.281742 20.0918 0.22196 20.0715 0.170014 20.0394C0.118068 20.0073 0.0754911 19.9644 0.0458942 19.9144C0.0162973 19.8643 0.000554108 19.8086 0 19.7519V9.70585C0.00201301 8.69171 0.310878 7.69721 0.89345 6.82907C1.47602 5.96092 2.31031 5.2519 3.30679 4.7781L12.7502 0.261808C12.8097 0.233017 12.8765 0.218564 12.9441 0.219851C13.0116 0.221139 13.0777 0.238124 13.1358 0.269156C13.1939 0.300188 13.242 0.344214 13.2757 0.396956C13.3093 0.449698 13.3271 0.509365 13.3276 0.570161V2.65007C13.3274 2.71357 13.308 2.77582 13.2714 2.83014C13.2349 2.88447 13.1826 2.92881 13.1202 2.95842L6.43678 6.16568H6.43569ZM22.735 14.7927C22.7327 15.812 22.4205 16.8112 21.8322 17.6823C21.244 18.5533 20.402 19.2629 19.3976 19.7342L9.98257 24.1788C9.92305 24.2071 9.85641 24.2212 9.78908 24.2197C9.72176 24.2181 9.65601 24.2009 9.5982 24.1698C9.54039 24.1387 9.49247 24.0948 9.45905 24.0421C9.42563 23.9895 9.40785 23.9301 9.40743 23.8695V13.8372C9.40939 12.8177 9.72144 11.8182 10.3097 10.947C10.898 10.0757 11.7401 9.36598 12.7448 8.8947L22.1598 4.45108C22.2193 4.42276 22.2858 4.40868 22.3531 4.4102C22.4203 4.41173 22.486 4.4288 22.5438 4.45978C22.6015 4.49075 22.6495 4.53459 22.683 4.58708C22.7165 4.63956 22.7344 4.69892 22.735 4.75944V14.7927Z" fill="#DB00CF"/>
<path d="M35.0664 18.5378C31.8664 18.5378 29.9264 16.3178 29.9264 13.1378C29.9264 9.95776 31.8664 7.73776 35.0664 7.73776C38.2664 7.73776 40.2064 9.95776 40.2064 13.1378C40.2064 16.3178 38.2664 18.5378 35.0664 18.5378ZM35.0664 16.8178C37.0664 16.8178 38.1064 15.2378 38.1064 13.1378C38.1064 11.0178 37.0664 9.45776 35.0664 9.45776C33.0664 9.45776 32.0264 11.0178 32.0264 13.1378C32.0264 15.2378 33.0664 16.8178 35.0664 16.8178ZM47.1178 7.73776C49.0578 7.73776 50.5578 8.83776 50.5578 11.1778V18.2378H48.4378V11.7778C48.4378 10.3978 47.8578 9.51776 46.3978 9.51776C44.8578 9.51776 43.7578 10.4978 43.7578 12.0178V18.2378H41.6578V3.93776H43.7578V9.33776H43.7978C44.3378 8.53776 45.3978 7.73776 47.1178 7.73776ZM63.7581 7.73776C65.8181 7.73776 66.8782 8.97776 66.8782 11.1778V18.2378H64.7582V11.7778C64.7582 10.3978 64.4782 9.51776 63.0381 9.51776C61.6181 9.51776 60.7382 10.4978 60.7382 12.0178V18.2378H58.6181V11.7778C58.6181 10.3978 58.3381 9.51776 56.8781 9.51776C55.4781 9.51776 54.5781 10.4978 54.5781 12.0178V18.2378H52.4781V8.01776H54.5781V9.33776H54.6181C55.1581 8.53776 56.1181 7.73776 57.6581 7.73776C59.0981 7.73776 59.9581 8.39776 60.3781 9.49776H60.4181C61.1781 8.51776 62.1781 7.73776 63.7581 7.73776ZM77.6505 8.01776L73.5705 18.8778C72.9905 20.4578 72.3305 21.7178 70.3705 21.7178C69.7705 21.7178 69.2705 21.6178 68.8705 21.5178V19.9178H69.0505C69.9305 20.0378 70.5905 19.9778 71.0505 19.4178C71.4305 18.9578 71.7105 18.1578 71.3305 17.1978L67.6305 8.01776H69.8905L72.7505 15.8378H72.7905L75.4105 8.01776H77.6505ZM89.9496 7.73776C92.0096 7.73776 93.0696 8.97776 93.0696 11.1778V18.2378H90.9496V11.7778C90.9496 10.3978 90.6696 9.51776 89.2296 9.51776C87.8096 9.51776 86.9296 10.4978 86.9296 12.0178V18.2378H84.8096V11.7778C84.8096 10.3978 84.5296 9.51776 83.0696 9.51776C81.6696 9.51776 80.7696 10.4978 80.7696 12.0178V18.2378H78.6696V8.01776H80.7696V9.33776H80.8096C81.3496 8.53776 82.3096 7.73776 83.8496 7.73776C85.2896 7.73776 86.1496 8.39776 86.5696 9.49776H86.6096C87.3696 8.51776 88.3696 7.73776 89.9496 7.73776ZM99.6172 18.5378C96.4172 18.5378 94.4772 16.3178 94.4772 13.1378C94.4772 9.95776 96.4172 7.73776 99.6172 7.73776C102.817 7.73776 104.757 9.95776 104.757 13.1378C104.757 16.3178 102.817 18.5378 99.6172 18.5378ZM99.6172 16.8178C101.617 16.8178 102.657 15.2378 102.657 13.1378C102.657 11.0178 101.617 9.45776 99.6172 9.45776C97.6172 9.45776 96.5772 11.0178 96.5772 13.1378C96.5772 15.2378 97.6172 16.8178 99.6172 16.8178ZM110.809 18.5378C107.609 18.5378 105.669 16.3178 105.669 13.1378C105.669 9.95776 107.609 7.73776 110.809 7.73776C114.009 7.73776 115.949 9.95776 115.949 13.1378C115.949 16.3178 114.009 18.5378 110.809 18.5378ZM110.809 16.8178C112.809 16.8178 113.849 15.2378 113.849 13.1378C113.849 11.0178 112.809 9.45776 110.809 9.45776C108.809 9.45776 107.769 11.0178 107.769 13.1378C107.769 15.2378 108.809 16.8178 110.809 16.8178ZM124.58 3.93776H126.68V18.2378H124.58V17.0578H124.54C124 17.7578 123 18.5378 121.42 18.5378C118.8 18.5378 116.86 16.4978 116.86 13.1378C116.86 9.77776 118.8 7.73776 121.42 7.73776C123 7.73776 124 8.47776 124.54 9.25776H124.58V3.93776ZM121.78 16.8178C123.5 16.8178 124.56 15.3978 124.56 13.1378C124.56 10.8578 123.5 9.45776 121.78 9.45776C119.94 9.45776 118.96 11.1378 118.96 13.1378C118.96 15.1378 119.94 16.8178 121.78 16.8178Z" fill="white"/>
</svg>
